<?xml version="1.0"?>
<svg xmlns="http://www.w3.org/2000/svg" viewBox="0 0 363.7 54.6">
  <path fill="none" stroke="#000" stroke-miterlimit="3.8637" stroke-width="1.5" d="M201.7 54.6V0v54.6z"/>
  <path d="M6.8 34.4C3 34.4 0 31.8 0 27.9V15.7h3.6v12c0 2.1 1.2 3.4 3.2 3.4 1.9 0 3.2-1.3 3.2-3.4v-12h3.6v12.2c0 3.9-3 6.5-6.8 6.5zm18.5-.2V26c0-1.8-1.2-2.5-2.2-2.5-1.1 0-2.3.6-2.3 2.5v8.2h-3.4V20.6h3.3v1.2c.9-.9 2.1-1.4 3.4-1.4 1.4 0 2.4.4 3.2 1.2 1.1 1.1 1.4 2.4 1.4 3.8v8.7h-3.4zm9.6-5.7c0 1.8 1 3 3 3 1.5 0 2.2-.4 3.1-1.3l2.1 2c-1.4 1.4-2.7 2.1-5.1 2.1-3.2 0-6.3-1.5-6.3-6.9 0-4.4 2.4-6.9 5.9-6.9 3.8 0 5.9 2.7 5.9 6.6v1.4h-8.6zm4.9-3.8c-.4-.8-1.1-1.4-2.3-1.4-1.1 0-1.9.6-2.3 1.4-.2.5-.3.9-.3 1.5H40c.1-.6 0-1-.2-1.5zm28.5 9.5V26c0-1.8-1.2-2.5-2.2-2.5-1 0-2.3.6-2.3 2.4v8.3h-3.4V26c0-1.8-1.2-2.5-2.2-2.5-1.1 0-2.3.6-2.3 2.5v8.2h-3.4V20.6h3.3v1.2c.9-.9 2.1-1.4 3.4-1.4 1.5 0 2.7.5 3.6 1.7 1.1-1.2 2.4-1.7 4.1-1.7 1.4 0 2.6.4 3.3 1.2 1.1 1.1 1.5 2.4 1.5 3.8v8.7h-3.4zm14 0V33c-.9.9-1.8 1.3-3.3 1.3-1.5 0-2.7-.4-3.5-1.2-.7-.8-1.1-1.8-1.1-3 0-2.2 1.5-3.9 4.7-3.9h3.1v-.7c0-1.5-.7-2.1-2.5-2.1-1.2 0-1.9.3-2.6 1.2L75 22.4c1.3-1.5 2.6-1.9 4.9-1.9 3.8 0 5.8 1.6 5.8 4.8v8.9h-3.4zm-.1-5.7h-2.6c-1.4 0-2 .5-2 1.6 0 .9.6 1.5 2.1 1.5.8 0 1.4-.1 2-.7.4-.3.5-.9.5-1.7v-.7zm14.4-4.2c-.5-.5-1-.8-1.8-.8-1 0-2.2.8-2.2 2.5v8.2h-3.4V20.6h3.3v1.3c.6-.8 2-1.5 3.4-1.5 1.3 0 2.3.3 3.2 1.3l-2.5 2.6zm11.1 14.9V33c-.9 1-1.9 1.4-3.3 1.4s-2.5-.4-3.3-1.2c-1.3-1.3-1.4-3.5-1.4-5.7 0-2.3.1-4.4 1.4-5.7.8-.8 2-1.2 3.3-1.2 1.4 0 2.4.4 3.4 1.4v-1.3h3.3v18.5h-3.4zm-2.3-15.7c-2 0-2.3 1.7-2.3 3.9s.3 3.9 2.3 3.9c2 0 2.3-1.7 2.3-3.9s-.3-3.9-2.3-3.9zm17.3 10.7V33c-.9.9-2.1 1.4-3.4 1.4-1.4 0-2.4-.4-3.2-1.2-1.1-1.1-1.4-2.4-1.4-3.8v-8.7h3.4v8.2c0 1.8 1.2 2.5 2.2 2.5 1.1 0 2.3-.6 2.3-2.5v-8.2h3.4v13.5h-3.3zm9.7-5.7c0 1.8 1 3 3 3 1.5 0 2.2-.4 3.1-1.3l2.1 2c-1.4 1.4-2.7 2.1-5.1 2.1-3.2 0-6.3-1.5-6.3-6.9 0-4.4 2.4-6.9 5.9-6.9 3.8 0 5.9 2.7 5.9 6.6v1.4h-8.6zm4.9-3.8c-.4-.8-1.1-1.4-2.3-1.4-1.1 0-1.9.6-2.3 1.4-.2.5-.3.9-.3 1.5h5.1c0-.6 0-1-.2-1.5zm20.2 9.5v-1.3c-.9 1-1.9 1.4-3.4 1.4-1.4 0-2.5-.4-3.3-1.2-1.3-1.3-1.4-3.4-1.4-5.7 0-2.3.1-4.4 1.4-5.7.8-.8 1.9-1.2 3.3-1.2s2.4.4 3.3 1.4v-6.2h3.4v18.5h-3.3zm-2.4-10.7c-2 0-2.3 1.7-2.3 3.9s.3 3.9 2.3 3.9c2 0 2.3-1.7 2.3-3.9.1-2.2-.2-3.9-2.3-3.9zm12.2 5c0 1.8 1 3 3 3 1.5 0 2.2-.4 3.1-1.3l2.1 2c-1.4 1.4-2.7 2.1-5.1 2.1-3.2 0-6.3-1.5-6.3-6.9 0-4.4 2.4-6.9 5.9-6.9 3.8 0 5.9 2.7 5.9 6.6v1.4h-8.6zm4.8-3.8c-.4-.8-1.1-1.4-2.3-1.4-1.1 0-1.9.6-2.3 1.4-.2.5-.3.9-.3 1.5h5.1c.1-.6.1-1-.2-1.5zM223.7 14.8v6.9h7.2v18.1h6.7v-25zm-2.5-2.1h1.6v9.1h-1.6z"/>
  <path d="M227.6 39.8v-6.9h-7.3v-18h-6.6v24.9zm.8-6.9h1.6V42h-1.6z"/>
  <path fill="#e30613" d="M246.2 14.1h5.9V41h-5.9zm47.3 7.3v19.7h6.3V31c.1-4.9 5.6-5.2 5.6-5.2V21c-3.1 0-5.6 2.4-5.6 2.4v-2h-6.3zm26 0v19.7h6.1V29.5c0-2.8 4.5-3 4.5 0v11.6h6V26.3c0-3-3.9-7.3-10.4-3.1v-1.8h-6.2z"/>
  <path fill="#e30613" d="M307.4 33.8c0-1.4 1.1-2.5 2.5-2.5s2.5 1.1 2.5 2.5-1.1 2.5-2.5 2.5c-1.3.1-2.5-1.1-2.5-2.5zm-.6-8.2s.5-.1 2.8-.1c2.9.1 2.5 2.4 2.5 2.4s-1.4-.8-3.4-.9c-2.2 0-6.7 1.3-6.7 7.2 0 5.2 4.2 6.7 6.6 6.7s3.7-1.1 3.7-1.1V41h5.7V27.6c0-2.6-.5-3.3-1.7-4.6-1.7-1.8-5.6-2-5.6-2h-4v4.6h.1zm39.3-3.6c-6.3-.2-9 5.2-9 9.3 0 5.5 3.6 9.9 8.9 9.5 1.3-.1 2.3-.6 3.4-1.4v1.7h6.1v-27h-6.1v9c-1.3-.9-3.3-1.1-3.3-1.1zm-.1 13.2c-2.1 0-3.8-1.7-3.8-3.8s1.7-3.8 3.8-3.8c2.1 0 3.8 1.7 3.8 3.8s-1.7 3.8-3.8 3.8zm-63.1 9c-2.8-.1-3.4-1.9-3.4-1.9h-7.1c1.5 9.8 18.8 10.2 19.6.8V21.4h-5.9v2c-4.1-4.1-13.5-1.1-13.2 8.1.3 8.6 9.5 11.2 13.2 7.9v2.3c0 2.6-3.2 2.5-3.2 2.5zm-.4-9.2c-2.1 0-3.8-1.7-3.8-3.8s1.7-3.8 3.8-3.8c2.1 0 3.8 1.7 3.8 3.8s-1.7 3.8-3.8 3.8zm-19.9-14.4c-4.8 0-9.5 3.9-9.5 10.2 0 7 4.4 11 10.1 10.9 4.4-.1 7.5-2.9 8.6-6.8h-6c-.3.6-1.2 1.4-2.9 1.4-2.2 0-3.4-1.7-3.4-3.3h12.7c.7-7.4-4-12.4-9.6-12.4zm-3.3 8.1c.2-1.6 1.6-2.9 3.3-2.9 1.7 0 3.1 1.3 3.3 2.9h-6.6z"/>
  <path d="M360.3 14.1c-1.9 0-3.4 1.5-3.4 3.4s1.5 3.4 3.4 3.4 3.4-1.5 3.4-3.4c0-1.8-1.5-3.4-3.4-3.4zm0 6.4c-1.6 0-2.9-1.3-2.9-2.9s1.3-2.9 2.9-2.9 2.9 1.3 2.9 2.9-1.3 2.9-2.9 2.9z"/>
  <path d="M359.4 19.3h-.5v-3.6h1.7c.6 0 1.2.2 1.2 1 0 .5-.3.7-.5.8.2.1.4.2.4.7v.7c0 .2 0 .3.2.4v.1h-.6c-.1-.2-.1-.8-.1-.9 0-.3-.1-.6-.6-.6h-1.2v1.4zm0-2h1.1c.4 0 .7-.1.7-.6s-.4-.6-.6-.6h-1.2v1.2z"/>
</svg>
